<?xml version="1.0" encoding="utf-8"?>
<!-- Generator: Adobe Illustrator 24.1.1, SVG Export Plug-In . SVG Version: 6.00 Build 0)  -->
<svg version="1.1" id="Layer_1" xmlns="http://www.w3.org/2000/svg" xmlns:xlink="http://www.w3.org/1999/xlink" x="0px" y="0px"
	 viewBox="0 0 512 512" style="enable-background:new 0 0 512 512;" xml:space="preserve">
<style type="text/css">
	.st0{fill:#FCB424;}
	.st1{fill:#F58B2D;}
	.st2{fill:#F9A96E;}
	.st3{fill:#E08455;}
	.st4{fill:#AD1F32;}
	.st5{fill:#E92933;}
	.st6{fill:#3F0F33;}
</style>
<g>
	<g>
		<path class="st0" d="M92.6,366c0,0-2.5,8.7,7.9,17.5c18.4,15.7,12.6,49.7,10.1,66.8c-4.3,29.8,30.3,36.2,23.7-3.1
			c-6.7-39.3-4.9-73.3,13.4-72.4c15.2,0.7,29.1,5,39.3-17.4c10.2-22.4,21.2-5.4,47.3-18.3s36.4-38.2,36.4-38.2L92.6,366z"/>
	</g>
	<g>
		<polygon class="st0" points="252.9,323.3 392.7,261.7 374.6,257.3 242.9,311.1 		"/>
	</g>
	<g>
		<path class="st0" d="M368.3,243.6c-8.7-25-21-48.4-37-69.5c-6.6-8.7-13.8-16.9-21.6-24.7c-26.9-26.9-58.9-46.3-94.2-58.6
			c-3.9-1.4-7.3-3.6-10.1-6.4c-44.4,88.3-82.1,182.4-113,282.3c96.9-30.7,190.9-68.4,282.3-113C371.9,250.9,369.7,247.5,368.3,243.6
			z"/>
	</g>
	<g>
		<polygon class="st1" points="377,255.8 270.7,300.9 270.7,317.3 373.4,274.7 392.7,265.4 		"/>
	</g>
	<g>
		<path class="st1" d="M209.9,96.4c12.9,7.1,21.7,20.9,21.7,36.7c0,23.1-18.7,41.8-41.8,41.8c-5,0-9.8-0.9-14.2-2.5
			c6,3.3,12.8,5.1,20.1,5.1c23.1,0,41.8-18.7,41.8-41.8C237.5,117.6,226,102.3,209.9,96.4z"/>
	</g>
	<g>
		<path class="st1" d="M192.8,102.9c0,0,125,57.4,150.7,165.7l36.3-13.9c0,0-63.6-145.5-175.9-167.3L192.8,102.9z"/>
	</g>
	<g>
		<path class="st1" d="M173.1,339.2c0,0-0.6,20.2-12.3,22.4c-11.7,2.2-34.7-4.3-38.1,22.5c-3.5,26.9,9.5,50.3,9.5,50.3
			s-15.2-60.7,13.4-59.8c28.6,0.9,32.3-2.6,35.9-8c3.6-5.4,11.3-20.5,11.3-20.5s12.6-0.4,21.1-1.6c8.5-1.2,38-13.3,38-13.3
			l11.2-28.5L173.1,339.2z"/>
	</g>
	<g>
		<path class="st1" d="M92.4,366.7c0,0,211.1-189.1,200.1-242.6c0,0,75.3,71.7,82.2,129.6L92.4,366.7z"/>
	</g>
	<g>
		<path class="st2" d="M309.7,149.4c26.9,26.9,46.3,58.9,58.6,94.2c5.1,14.6,21.5,21.9,35.9,16.2h0c12.5-5,19.6-18.4,16.5-31.6
			c-10.9-46.7-33-88.9-66.9-122.9s-76.2-56.1-122.9-66.9c-13.1-3.1-26.6,4-31.6,16.5l0,0c-5.8,14.4,1.5,30.8,16.2,35.9
			C250.8,103.1,282.8,122.5,309.7,149.4z"/>
	</g>
	<g>
		<path class="st3" d="M420.6,234.1c-14.4,5.8-30.8-1.5-35.9-16.2c-12.3-35.3-31.7-67.4-58.6-94.2c-26.9-26.9-58.9-46.3-94.2-58.6
			c-11-3.8-17.9-14.1-18.1-25.1c-6.4,2.8-11.7,7.9-14.5,14.8c-5.8,14.4,1.5,30.8,16.2,35.9c35.3,12.3,67.4,31.7,94.2,58.6
			c26.9,26.9,46.3,58.9,58.6,94.2c5.1,14.6,21.5,21.9,35.9,16.2h0c10.8-4.3,17.4-14.8,17.2-26C421.1,233.9,420.9,234,420.6,234.1z"
			/>
	</g>
	<path class="st4" d="M298.2,232.2c-23.5,0-42.6,19.1-42.6,42.6c0,10.8,4,20.6,10.6,28.1l74.3-32.9
		C338.1,248.7,320.1,232.2,298.2,232.2z"/>
	<path class="st5" d="M278.4,124.1c-20.3,4.3-35.6,22.3-35.6,43.9c0,24.8,20.1,44.8,44.8,44.8c22.1,0,40.5-16,44.2-37.1L278.4,124.1
		z"/>
	<g>
		<circle class="st5" cx="192.8" cy="229.5" r="27.7"/>
	</g>
	<g>
		<path class="st4" d="M201.6,203.3c2.1,3.9,3.2,8.3,3.2,13c0,15.3-12.4,27.7-27.7,27.7c-3.1,0-6-0.5-8.8-1.5
			c4.7,8.8,13.9,14.8,24.5,14.8c15.3,0,27.7-12.4,27.7-27.7C220.5,217.3,212.6,206.9,201.6,203.3z"/>
	</g>
	<path class="st5" d="M197.3,102.9l-26.4,56.3c5.1,3.6,11.4,5.7,18.1,5.7c17.4,0,31.6-14.1,31.6-31.6
		C220.5,118.8,210.7,106.5,197.3,102.9z"/>
	<path class="st5" d="M176.1,280.1c-28.4,0-51.5,23.1-51.5,51.5c0,8.2,1.9,15.9,5.3,22.8l96.2-35.2
		C220.5,296.7,200.3,280.1,176.1,280.1z"/>
	<g>
		<path class="st4" d="M333.9,179.2l-55.4-56.1c0,0-22.1-1.4-25.5,15.1c0,0,1,0.1,2.9,0.7c17.9,5.6,24.8,27.4,14,42.6
			c-8.6,12.1-16.9,21.5-16.9,21.5C311.3,231.2,333.9,179.2,333.9,179.2z"/>
	</g>
	<g>
		<path class="st4" d="M124.6,341.4c0,0,33.9-21.3,61-57c0,0,19.7-2,27.8,14.2s7.1,21.4,7.1,21.4l-92.3,37.5L124.6,341.4z"/>
	</g>
	<g>
		<g>
			<g>
				<path class="st6" d="M123.9,480.1c-2.8,0-5.7-0.9-8.4-2.6c-6.3-3.9-12.2-13.3-10.1-27.9l0.3-2.1c2.4-16.3,6.8-46.8-8.6-59.9
					c-10.3-8.7-10.8-18.6-9.6-23c0.8-2.8,3.8-4.5,6.6-3.7c2.8,0.8,4.5,3.8,3.7,6.6c0,0.1-1.2,5.7,6.2,12
					c19.9,17,14.9,51.2,12.2,69.5l-0.3,2.1c-1.4,9.5,2,15.3,5.2,17.4c1,0.6,2.9,1.5,4.7,0.3c2.8-1.8,5.2-8.3,3.2-20.6
					c-4.4-25.7-7-59.2,5-72.7c3.7-4.1,8.5-6.1,14-5.9c1.9,0.1,3.9,0.2,5.7,0.4c12.7,1,21.1,1.6,28.5-14.6
					c7.2-15.9,16.1-15.8,25.7-15.8c6.5,0,14,0,24.1-5c24-11.9,33.7-35.2,33.8-35.5c1.1-2.7,4.2-4,6.9-2.9c2.7,1.1,4,4.2,2.9,6.9
					c-0.5,1.1-11.3,27.4-38.9,41c-12.4,6.1-21.9,6.2-28.9,6.1c-8.5,0-11.6,0-15.9,9.6c-10.5,23-25.6,21.9-39,20.8
					c-1.8-0.1-3.6-0.3-5.4-0.4c-2.3-0.2-4,0.6-5.5,2.4c-6.9,7.8-7.8,32.2-2.4,63.9c3.5,20.4-3.4,28.4-7.8,31.3
					C129.4,479.2,126.7,480.1,123.9,480.1z"/>
			</g>
			<g>
				<path class="st6" d="M394,267c-4.7,0-9.3-1-13.6-2.9c-8.1-3.7-14.2-10.4-17.1-18.8c-12.4-35.5-31.7-66.6-57.3-92.2
					c-25.7-25.7-56.7-44.9-92.2-57.3c-8.4-2.9-15.1-9-18.8-17.1c-3.7-8.1-3.9-17.5-0.6-25.8c6-14.9,22.2-23.3,37.7-19.7
					c49.4,11.5,91.6,34.5,125.4,68.3c33.9,33.9,56.9,76.1,68.3,125.4c3.7,15.8-4.6,31.7-19.7,37.7C402.2,266.3,398.1,267,394,267z
					 M224.8,43c-8.8,0-17.1,5.4-20.5,13.9c-2.3,5.7-2.1,11.8,0.4,17.4c2.5,5.5,6.9,9.5,12.6,11.5c37.1,12.9,69.4,33.1,96.2,59.9
					c26.8,26.8,46.9,59.2,59.9,96.2c2,5.6,6,10.1,11.5,12.6c5.5,2.5,11.7,2.7,17.4,0.4c10-4,15.7-14.9,13.3-25.4
					c-11-47.4-33.1-87.9-65.5-120.3c-32.4-32.4-72.9-54.5-120.3-65.5C228,43.2,226.4,43,224.8,43z"/>
			</g>
			<g>
				<path class="st6" d="M92.4,372c-1.4,0-2.7-0.5-3.8-1.6c-1.4-1.4-1.9-3.5-1.3-5.4c30.9-99.9,69.1-195.2,113.3-283.1
					c0.8-1.5,2.2-2.6,3.9-2.9c1.7-0.3,3.4,0.3,4.6,1.5c2.3,2.3,5,4,8.1,5.1c37.1,12.9,69.4,33.1,96.2,59.9
					c7.9,7.9,15.3,16.4,22.1,25.3c16,21.1,28.7,45,37.8,70.9c0,0,0,0,0,0c1.1,3,2.8,5.8,5.1,8.1c1.2,1.2,1.8,3,1.5,4.7
					c-0.3,1.7-1.4,3.2-2.9,3.9c-91.4,44.6-186.6,82.7-283,113.3C93.5,371.9,92.9,372,92.4,372z M207.2,92.7
					c-41.3,82.9-77.2,172.2-106.7,265.8c90.5-29.2,179.8-65,265.8-106.7c-1.3-2-2.3-4.2-3.1-6.5c-8.7-24.9-20.9-47.8-36.2-68
					c-6.5-8.5-13.6-16.6-21.1-24.2c-25.7-25.7-56.7-44.9-92.2-57.3C211.4,95,209.2,94,207.2,92.7z"/>
			</g>
			<g>
				<path class="st6" d="M266.2,308.2c-1.5,0-3-0.6-4-1.8c-7.7-8.7-11.9-20-11.9-31.6c0-26.4,21.5-47.9,47.9-47.9
					c24.5,0,44.9,18.3,47.6,42.6c0.3,2.9-1.8,5.6-4.7,5.9c-2.9,0.4-5.6-1.8-5.9-4.7c-2.1-18.9-18-33.1-37-33.1
					c-20.5,0-37.3,16.7-37.3,37.3c0,9.1,3.3,17.8,9.3,24.6c1.9,2.2,1.7,5.6-0.5,7.5C268.7,307.7,267.4,308.2,266.2,308.2z"/>
			</g>
			<g>
				<path class="st6" d="M287.7,218.1c-27.7,0-50.2-22.5-50.2-50.2c0-23.6,16.7-44.2,39.8-49.1c2.9-0.6,5.7,1.2,6.3,4.1
					c0.6,2.9-1.2,5.7-4.1,6.3c-18.1,3.8-31.3,20.1-31.3,38.7c0,21.8,17.7,39.5,39.5,39.5c19.3,0,35.6-13.7,38.9-32.7
					c0.5-2.9,3.3-4.9,6.2-4.3c2.9,0.5,4.8,3.3,4.3,6.2C332.9,200.7,312.1,218.1,287.7,218.1z"/>
			</g>
			<g>
				<path class="st6" d="M192.8,262.6c-18.2,0-33.1-14.8-33.1-33.1s14.8-33.1,33.1-33.1s33.1,14.8,33.1,33.1S211,262.6,192.8,262.6z
					 M192.8,207.1c-12.3,0-22.4,10-22.4,22.4c0,12.3,10,22.4,22.4,22.4c12.3,0,22.4-10,22.4-22.4
					C215.2,217.2,205.2,207.1,192.8,207.1z"/>
			</g>
			<g>
				<path class="st6" d="M189,170.2c-7.6,0-14.9-2.3-21.1-6.7c-2.4-1.7-3-5-1.3-7.4c1.7-2.4,5-3,7.4-1.3c4.4,3.1,9.6,4.7,15,4.7
					c14.5,0,26.2-11.8,26.2-26.2c0-11.8-7.9-22.2-19.3-25.3c-2.8-0.8-4.5-3.7-3.7-6.6c0.8-2.8,3.7-4.5,6.6-3.7
					c16,4.4,27.1,19,27.1,35.6C225.9,153.6,209.3,170.2,189,170.2z"/>
			</g>
			<g>
				<path class="st6" d="M129.9,359.7c-2,0-3.9-1.1-4.8-3c-3.9-7.9-5.8-16.3-5.8-25.1c0-31.3,25.5-56.8,56.8-56.8
					c26.2,0,48.8,17.7,55.2,43.1c0.7,2.9-1,5.8-3.9,6.5c-2.9,0.7-5.8-1-6.5-3.9c-5.1-20.6-23.6-35-44.8-35
					c-25.5,0-46.2,20.7-46.2,46.2c0,7.2,1.6,14,4.7,20.4c1.3,2.6,0.2,5.8-2.4,7.1C131.5,359.5,130.7,359.7,129.9,359.7z"/>
			</g>
		</g>
		<g>
			<path class="st6" d="M255.6,328.6c-2.2,0-4.3-1.4-5.1-3.7c-0.9-2.8,0.6-5.8,3.4-6.7c57.5-18.8,103.1-38.7,139.3-61.1
				c2.5-1.5,5.8-0.8,7.3,1.7c1.5,2.5,0.8,5.8-1.7,7.3c-36.9,22.8-83.2,43.1-141.6,62.1C256.7,328.6,256.1,328.6,255.6,328.6z"/>
		</g>
	</g>
</g>
</svg>
